<?xml version="1.0" encoding="UTF-8"?>
<svg xmlns="http://www.w3.org/2000/svg" viewBox="0 0 607.42 56.35">
  <defs>
    <style>
      .cls-1 {
        isolation: isolate;
      }

      .cls-2, .cls-3 {
        fill: #231916;
      }

      .cls-3 {
        mix-blend-mode: multiply;
      }
    </style>
  </defs>
  <g class="cls-1">
    <g id="Layer_2" data-name="Layer 2">
      <g id="_ロゴデータ" data-name="ロゴデータ">
        <polygon class="cls-2" points="67.21 35.05 70.12 28.26 37.45 14.26 50.69 8.97 47.94 2.1 27.84 10.15 15.31 4.78 12.39 11.57 18.14 14.03 0 21.29 2.75 28.16 10.3 25.13 .98 43.77 12.9 50.06 16.35 43.52 10.83 40.6 17.13 27.99 26.87 50.79 33.75 48.08 21.96 20.47 27.75 18.15 67.21 35.05"/>
        <g>
          <path class="cls-2" d="M103.08,50.24h-4.68l-2.23-5.11c-.38-.8-.83-1.34-1.34-1.61-.51-.28-1.33-.41-2.46-.41h-7.31v7.14h-3.97v-19.99h13.05c1.69,0,3.14.27,4.33.8,1.19.53,2.08,1.27,2.68,2.2.6.93.9,1.99.9,3.17,0,1.05-.21,1.99-.64,2.84-.43.85-1.02,1.54-1.78,2.07-.76.53-1.62.85-2.57.94v.4c.97.06,1.74.31,2.31.76.57.45,1.12,1.24,1.66,2.38l2.06,4.43ZM93.89,40.33c1.37,0,2.41-.31,3.13-.93.71-.62,1.07-1.45,1.07-2.5s-.36-1.9-1.07-2.51c-.71-.61-1.76-.91-3.13-.91h-8.99v6.85h8.99Z"/>
          <path class="cls-2" d="M114.28,47.33h4.8v2.91h-13.73v-2.91h5.54v-6.85c0-.7-.15-1.2-.44-1.5-.3-.29-.79-.44-1.47-.44-.65,0-1.26.12-1.83.37v-2.97c.88-.34,1.86-.51,2.94-.51,1.48,0,2.56.3,3.21.91.66.61.98,1.57.98,2.88v8.11ZM110.43,32.68c-.4-.36-.6-.83-.6-1.4s.2-1.04.6-1.4c.4-.36.94-.54,1.63-.54s1.2.18,1.6.54c.4.36.6.83.6,1.4s-.2,1.04-.6,1.4c-.4.36-.93.54-1.6.54s-1.23-.18-1.63-.54Z"/>
          <path class="cls-2" d="M125.04,49.58c-1.46-.67-2.56-1.57-3.31-2.71-.75-1.14-1.13-2.43-1.13-3.86s.38-2.72,1.13-3.87c.75-1.15,1.86-2.06,3.31-2.73,1.46-.67,3.2-1,5.24-1,1.85,0,3.47.28,4.87.83,1.4.55,2.5,1.31,3.31,2.28s1.3,2.08,1.47,3.31h-3.54c-.21-1.01-.84-1.86-1.88-2.54-1.05-.68-2.46-1.03-4.23-1.03-1.29,0-2.41.21-3.34.63-.93.42-1.64.99-2.11,1.71-.48.72-.71,1.52-.71,2.4s.24,1.68.71,2.4c.48.72,1.18,1.29,2.11,1.71.93.42,2.05.63,3.34.63,1.77,0,3.18-.34,4.23-1.03,1.05-.69,1.67-1.53,1.88-2.54h3.54c-.17,1.24-.66,2.34-1.47,3.3-.81.96-1.91,1.72-3.31,2.27-1.4.55-3.02.83-4.87.83-2.04,0-3.78-.33-5.24-1Z"/>
          <path class="cls-2" d="M161.7,44.19h-16.05c.27,1.14.94,2.06,2.03,2.74,1.09.69,2.53,1.03,4.34,1.03,2.82,0,4.8-.78,5.94-2.34h3.46c-.3.8-.82,1.58-1.56,2.33-.73.75-1.76,1.38-3.08,1.88-1.32.5-2.94.76-4.84.76-2.06,0-3.82-.33-5.28-1-1.47-.67-2.57-1.57-3.33-2.71-.75-1.14-1.13-2.43-1.13-3.86s.38-2.72,1.14-3.87c.76-1.15,1.87-2.06,3.34-2.73,1.47-.67,3.24-1,5.31-1s3.84.33,5.31,1c1.47.67,2.57,1.58,3.33,2.74.75,1.16,1.13,2.46,1.13,3.88,0,.3-.02.68-.06,1.14ZM147.63,39.13c-1.09.7-1.75,1.65-2,2.83h12.71c-.25-1.18-.91-2.12-2-2.83-1.09-.7-2.53-1.06-4.34-1.06s-3.28.35-4.37,1.06Z"/>
          <path class="cls-2" d="M188.37,42.79v-2.68h14.31v10.14h-3.51l.71-4.83h-.4c-.63,1.39-1.75,2.6-3.35,3.63-1.61,1.03-3.77,1.54-6.5,1.54-2.47,0-4.63-.45-6.45-1.36-1.83-.9-3.23-2.14-4.21-3.7-.98-1.56-1.47-3.32-1.47-5.28s.5-3.73,1.5-5.3c1-1.57,2.47-2.8,4.4-3.7s4.24-1.34,6.92-1.34,4.76.37,6.58,1.1c1.82.73,3.25,1.72,4.28,2.96s1.73,2.64,2.07,4.2h-3.97c-.48-1.49-1.46-2.69-2.96-3.61-1.5-.92-3.5-1.38-6.01-1.38-1.87,0-3.47.31-4.81.93-1.34.62-2.36,1.46-3.04,2.53-.69,1.07-1.03,2.27-1.03,3.63s.34,2.63,1.03,3.73c.69,1.09,1.7,1.95,3.06,2.57,1.35.62,2.97.93,4.85.93,2.32,0,4.2-.46,5.62-1.37,1.43-.91,2.39-2.02,2.88-3.31h-10.51Z"/>
          <path class="cls-2" d="M207.17,50.24v-14.45h3.51l-.49,4.05h.43c.38-1.35,1.12-2.43,2.23-3.23,1.1-.8,2.52-1.2,4.25-1.2,2.36,0,4.17.63,5.43,1.9,1.26,1.27,1.88,3.1,1.88,5.5v.54h-3.57v-.26c0-1.43-.44-2.56-1.33-3.38-.89-.83-2.14-1.24-3.75-1.24s-2.87.45-3.75,1.36c-.89.9-1.33,2.22-1.33,3.96v6.45h-3.51Z"/>
          <path class="cls-2" d="M228.72,49.41c-1.09-.78-1.63-1.84-1.63-3.17s.54-2.39,1.63-3.17c1.08-.78,2.78-1.17,5.08-1.17,1.75,0,3.21.17,4.37.5s2.29.81,3.4,1.44v-1.26c0-1.33-.49-2.39-1.46-3.18s-2.4-1.19-4.28-1.19c-1.71,0-3.03.28-3.96.84-.92.56-1.49,1.25-1.7,2.07h-3.51c.21-1.66,1.08-3.02,2.6-4.1,1.52-1.08,3.72-1.61,6.6-1.61,3.05,0,5.34.65,6.88,1.96s2.31,3.08,2.31,5.33v3.71c0,.84.38,1.26,1.14,1.26.3,0,.6-.04.88-.11v2.77c-.51.17-1.08.26-1.71.26-1.05,0-1.85-.25-2.41-.74-.56-.5-.84-1.16-.84-2v-.14h-.43v.03c0,.46-.3.9-.91,1.34-.61.44-1.51.8-2.71,1.08-1.2.29-2.62.43-4.25.43-2.3,0-4-.39-5.08-1.17ZM241.57,46.5v-.91c-1.01-.46-2.01-.81-3-1.06-.99-.25-2.16-.37-3.51-.37-1.66,0-2.81.17-3.46.51-.65.34-.97.82-.97,1.43s.32,1.11.97,1.46c.65.34,1.8.51,3.46.51,2.46,0,4.62-.52,6.51-1.57Z"/>
          <path class="cls-2" d="M249.66,50.24v-14.45h3.51l-.54,4.45h.43c.38-1.48,1.19-2.66,2.41-3.53s2.83-1.3,4.81-1.3c2.53,0,4.52.73,5.95,2.18,1.44,1.46,2.16,3.47,2.16,6.04v6.6h-3.51v-5.83c0-1.94-.51-3.43-1.53-4.47-1.02-1.04-2.46-1.56-4.33-1.56s-3.28.52-4.31,1.57-1.54,2.53-1.54,4.45v5.83h-3.51Z"/>
          <path class="cls-2" d="M273.44,49.41c-1.09-.78-1.63-1.84-1.63-3.17s.54-2.39,1.63-3.17c1.08-.78,2.78-1.17,5.08-1.17,1.75,0,3.21.17,4.37.5s2.29.81,3.4,1.44v-1.26c0-1.33-.49-2.39-1.46-3.18s-2.4-1.19-4.28-1.19c-1.71,0-3.03.28-3.96.84-.92.56-1.49,1.25-1.7,2.07h-3.51c.21-1.66,1.08-3.02,2.6-4.1,1.52-1.08,3.72-1.61,6.6-1.61,3.05,0,5.34.65,6.88,1.96s2.31,3.08,2.31,5.33v3.71c0,.84.38,1.26,1.14,1.26.3,0,.6-.04.88-.11v2.77c-.51.17-1.08.26-1.71.26-1.05,0-1.85-.25-2.41-.74-.56-.5-.84-1.16-.84-2v-.14h-.43v.03c0,.46-.3.9-.91,1.34-.61.44-1.51.8-2.71,1.08-1.2.29-2.62.43-4.25.43-2.3,0-4-.39-5.08-1.17ZM286.28,46.5v-.91c-1.01-.46-2.01-.81-3-1.06-.99-.25-2.16-.37-3.51-.37-1.66,0-2.81.17-3.46.51-.65.34-.97.82-.97,1.43s.32,1.11.97,1.46c.65.34,1.8.51,3.46.51,2.46,0,4.62-.52,6.51-1.57Z"/>
          <path class="cls-2" d="M294.38,50.24v-14.45h3.51l-.49,4.05h.43c.38-1.35,1.12-2.43,2.23-3.23,1.1-.8,2.52-1.2,4.25-1.2,2.36,0,4.17.63,5.43,1.9,1.26,1.27,1.88,3.1,1.88,5.5v.54h-3.57v-.26c0-1.43-.44-2.56-1.33-3.38-.89-.83-2.14-1.24-3.75-1.24s-2.87.45-3.75,1.36c-.89.9-1.33,2.22-1.33,3.96v6.45h-3.51Z"/>
          <path class="cls-2" d="M327.6,35.79h4.11l-7.94,15.05c-1.05,2-2.15,3.42-3.3,4.25-1.15.84-2.57,1.26-4.27,1.26-.51,0-.97-.03-1.37-.1-.4-.07-.83-.19-1.29-.36v-2.94c.72.29,1.47.43,2.23.43,1.03,0,1.86-.2,2.48-.6.63-.4,1.22-1.08,1.77-2.03l.14-.26-7.77-14.71h4.11l4.65,9.54c.44,1.03.66,1.88.66,2.54v.06h.43v-.06c0-.72.21-1.57.63-2.54l4.71-9.54Z"/>
          <path class="cls-2" d="M368.46,50.24h-4.2l-1.77-3.68h-12.59l-1.77,3.68h-4.2l9.94-19.99h4.65l9.94,19.99ZM351.41,43.44h9.57l-3.57-7.37c-.67-1.43-1-2.56-1-3.4v-.06h-.43v.06c0,.84-.33,1.97-1,3.4l-3.57,7.37Z"/>
          <path class="cls-2" d="M393.37,50.24h-4.68l-2.23-5.11c-.38-.8-.83-1.34-1.34-1.61-.51-.28-1.33-.41-2.46-.41h-7.31v7.14h-3.97v-19.99h13.05c1.69,0,3.14.27,4.33.8,1.19.53,2.08,1.27,2.68,2.2s.9,1.99.9,3.17c0,1.05-.21,1.99-.64,2.84-.43.85-1.02,1.54-1.79,2.07-.76.53-1.62.85-2.57.94v.4c.97.06,1.74.31,2.31.76.57.45,1.12,1.24,1.66,2.38l2.06,4.43ZM384.17,40.33c1.37,0,2.41-.31,3.13-.93.71-.62,1.07-1.45,1.07-2.5s-.36-1.9-1.07-2.51c-.71-.61-1.76-.91-3.13-.91h-8.99v6.85h8.99Z"/>
          <path class="cls-2" d="M407.37,50.24h-3.97v-16.65h-8.65v-3.34h21.27v3.34h-8.65v16.65Z"/>
          <path class="cls-2" d="M421.19,48.58c-1.87-1.33-2.8-3.14-2.8-5.42v-.4h4v.31c0,2.97,2.57,4.45,7.71,4.45,2.91,0,4.92-.27,6.03-.81,1.1-.54,1.66-1.3,1.66-2.27,0-.84-.36-1.47-1.07-1.9s-1.6-.71-2.67-.86c-1.07-.14-2.53-.26-4.4-.36-2.38-.11-4.31-.29-5.78-.53-1.48-.24-2.73-.75-3.77-1.53-1.04-.78-1.56-1.94-1.56-3.48,0-3.92,3.85-5.88,11.56-5.88,4,0,6.92.65,8.78,1.94,1.86,1.29,2.78,3.04,2.78,5.23v.23h-4.03v-.23c0-1.24-.59-2.23-1.77-2.98-1.18-.75-3.1-1.13-5.77-1.13-2.82,0-4.78.27-5.9.81-1.11.54-1.67,1.27-1.67,2.18,0,.72.33,1.27,1,1.64.67.37,1.5.61,2.5.73,1,.11,2.39.21,4.18.29,2.44.09,4.43.27,5.97.51,1.54.25,2.87.79,3.97,1.61,1.1.83,1.66,2.06,1.66,3.7,0,1.9-.9,3.4-2.68,4.5s-4.8,1.64-9.02,1.64-7.04-.67-8.91-2Z"/>
          <path class="cls-2" d="M463.82,49.24c-1.95-.89-3.43-2.13-4.43-3.7-1-1.57-1.5-3.34-1.5-5.3s.5-3.73,1.5-5.3c1-1.57,2.47-2.8,4.43-3.7s4.3-1.34,7.04-1.34c2.55,0,4.75.36,6.6,1.08s3.29,1.7,4.33,2.94c1.04,1.24,1.71,2.65,2.01,4.23h-3.97c-.36-1.41-1.29-2.59-2.77-3.54-1.49-.95-3.55-1.43-6.2-1.43-1.9,0-3.53.31-4.88.93-1.35.62-2.38,1.46-3.07,2.53-.7,1.07-1.04,2.27-1.04,3.6s.35,2.53,1.04,3.6c.69,1.07,1.72,1.91,3.07,2.53,1.35.62,2.98.93,4.88.93,2.65,0,4.71-.48,6.2-1.43,1.48-.95,2.41-2.13,2.77-3.54h3.97c-.44,2.47-1.74,4.47-3.91,5.98-2.17,1.51-5.18,2.27-9.02,2.27-2.74,0-5.09-.45-7.04-1.34Z"/>
          <path class="cls-2" d="M507.19,30.25v3.23h-15.5v5.14h13.51v2.94h-13.51v5.45h15.5v3.23h-19.47v-19.99h19.47Z"/>
          <path class="cls-2" d="M511.6,50.24v-19.99h6.2l12.96,17.62h.43c-.21-.8-.36-1.53-.46-2.2-.09-.67-.14-1.49-.14-2.46v-12.96h3.83v19.99h-6.2l-12.99-17.62h-.4c.21.8.36,1.53.46,2.2.09.67.14,1.48.14,2.46v12.96h-3.83Z"/>
          <path class="cls-2" d="M549.96,50.24h-3.97v-16.65h-8.65v-3.34h21.27v3.34h-8.65v16.65Z"/>
          <path class="cls-2" d="M581.02,30.25v3.23h-15.5v5.14h13.51v2.94h-13.51v5.45h15.5v3.23h-19.47v-19.99h19.47Z"/>
          <path class="cls-2" d="M607.42,50.24h-4.68l-2.23-5.11c-.38-.8-.83-1.34-1.34-1.61-.51-.28-1.33-.41-2.46-.41h-7.31v7.14h-3.97v-19.99h13.05c1.69,0,3.14.27,4.33.8,1.19.53,2.08,1.27,2.68,2.2s.9,1.99.9,3.17c0,1.05-.21,1.99-.64,2.84-.43.85-1.02,1.54-1.79,2.07-.76.53-1.62.85-2.57.94v.4c.97.06,1.74.31,2.31.76.57.45,1.12,1.24,1.66,2.38l2.06,4.43ZM598.22,40.33c1.37,0,2.41-.31,3.13-.93.71-.62,1.07-1.45,1.07-2.5s-.36-1.9-1.07-2.51c-.71-.61-1.76-.91-3.13-.91h-8.99v6.85h8.99Z"/>
        </g>
        <g>
          <path class="cls-3" d="M218.59,19.92c-4.16-1.99-7.89-4.93-10.52-9.24,3.77.02,7.29.03,9.28.08.25,0,.37-.12.37-.34.03-.71.03-1.77,0-2.48,0-.22-.12-.34-.37-.31-2.76.09-8.52.16-13.7.19,0-.41.01-.64.01-1.06V2.23c0-.28.03-.59.09-1.02.03-.22-.09-.34-.31-.37-.65-.06-1.8-.06-2.64-.06-.25,0-.33.1-.31.34.04.42.06.81.06,1.12v4.53c0,.41,0,.64,0,1.06-5.3,0-9.45.06-13.95-.25-.22-.03-.34.09-.34.31-.03.71,0,2.02.06,2.73.03.22.16.34.4.31,3.15-.2,6.05-.24,9.32-.25-2.79,4.04-6.39,7.68-10.66,9.81-.19.09-.19.19-.03.31,1.09.93,1.49,1.46,1.8,1.8.28.28.71.31.96.12,5.16-3.75,8.69-7.58,11.32-12.04h1.15c0,.4,0,.99,0,1.4,0,3.76-.03,8.97-.09,12.67,0,.25.09.37.34.37.68.06,1.83.06,2.58,0,.22,0,.31-.12.31-.34-.09-3.73-.12-9-.16-12.79,0-.37,0-.93,0-1.3h1.24c2.84,5.46,6.82,9.17,11.14,11.64.28.16.56.16.81-.06.47-.4.75-.93,1.86-1.99.12-.16.12-.25-.06-.34Z"/>
          <path class="cls-3" d="M208.04,4.6c1.26.49,2.44,1.03,3.73,1.8.22.12.39.09.54-.08.4-.47.78-1.04,1.12-1.66.12-.22.06-.37-.13-.5-1.35-.69-2.66-1.26-3.93-1.71-.19-.07-.38-.02-.51.17-.36.48-.71,1.03-.97,1.56-.11.18-.05.33.15.42Z"/>
        </g>
        <path class="cls-2" d="M252.71,14.6c0-.25-.12-.34-.37-.34h-.53c0-2.06,0-3.36,0-5.19,0-.9.06-2.11.06-2.86.03-.22-.09-.34-.31-.37-.36-.02-.82-.02-1.27-.02h-11.7c0-1.22.06-2.35.09-3.33.03-.43.06-.78.16-1.24.03-.22-.06-.34-.28-.37-.99-.09-2.08-.09-2.95-.06-.22,0-.31.12-.31.34.06.47.09.9.09,1.37.03.99.06,2.09.09,3.3,0,0-11.4,0-11.4,0-.44,0-.88,0-1.23.02-.25,0-.34.12-.34.34.03.74.04,1.95.06,2.95.03,1.8-.03,2.65-.03,4.86v3.38c0,.22.12.34.34.34.65.03,1.68.03,2.33,0,.22,0,.34-.12.34-.34v-.26h9.96c0,2.5-.03,5.07-.09,7.56,0,.22.12.34.34.37.71.06,1.83.06,2.58,0,.22,0,.31-.12.31-.34-.03-2.52-.08-5.07-.12-7.59h13.81c.25,0,.37-.09.37-.34.03-.65.03-1.52,0-2.17ZM225.54,8.67h9.97c.03,1.54.03,3.9.03,5.59h-10v-5.59ZM238.52,14.26v-5.59h10.28s0,3.3,0,5.59h-10.28Z"/>
        <g>
          <path class="cls-2" d="M281.12,16.08c1.14.88,1.55,1.12,1.96,1.4.32.22.4.5.27.85-.33.81-.76,1.75-1.25,2.68-1.35,2.06-2.55,3.1-5.75,3.38-1.92.17-3.11.12-4.67-.02-3.95-.35-6.31-2.66-6.3-8.13,0-2.88,0-4.55-.06-6.81-.03-.56-.03-1.15-.09-1.8,0-.22.09-.34.31-.34.99,0,1.92,0,2.92.09.22.03.31.16.28.37-.03.25-.06.5-.06.74-.06.34-.06.68-.09,1.06-.12,3.01-.05,4.17-.06,6.09-.03,4.4,1.31,5.58,4.32,5.73,1.19.06,1.75.12,3.29-.05,2.01-.23,2.74-.87,3.55-2.46.39-.77.85-1.82,1.16-2.7.05-.18.16-.21.28-.08Z"/>
          <path class="cls-2" d="M269.75.96c2.39,1.83,5.74,3.97,8.75,5.49.19.09.22.22.09.37-.43.56-1.02,1.43-1.55,1.99-.28.25-.56.28-.84.09-2.95-1.65-6.08-3.79-8.44-5.65-.19-.16-.22-.31-.06-.5.4-.53,1.06-1.3,1.52-1.77.16-.16.34-.19.53-.03Z"/>
          <path class="cls-2" d="M282.37,8.6c1.87,2.48,3.9,4.86,6.41,7.17.15.13.15.25-.01.38-.57.44-1.31,1.14-1.98,1.57-.31.16-.58.12-.82-.11-2.4-2.43-4.27-4.78-6.04-7.25-.13-.16-.11-.36.05-.49.51-.43,1.31-1.01,1.89-1.39.2-.11.36-.08.5.11Z"/>
          <path class="cls-2" d="M255.73,19.4c-.15-.03-.18-.16-.09-.28,2.12-2.96,3.73-6.74,4.31-9.99.04-.22.16-.31.38-.27.71.11,1.79.42,2.56.65.32.1.34.31.2.59-.09.18-.19.45-.3.89-.71,2.59-2.08,6.25-3.86,9.16-.19.34-.48.42-.81.29-.43-.23-.98-.55-2.4-1.05Z"/>
        </g>
        <g>
          <path class="cls-2" d="M133.65,1.8c3.67,2.48,9.4,3.68,14.74,4.68.19.03.22.12.09.28-.78.9-.99,1.37-1.3,1.77-.22.22-.49.25-.78.22-2.12-.21-3.99-.57-5.92-1.17-2.61-.81-5.32-2.07-8.9-4.24-1.27.89-2.62,1.71-4.29,2.65-2.92,1.65-6.71,3.15-9.93,4-.34.09-.59,0-.81-.28-.19-.34-.43-.78-1.21-1.68-.12-.16-.09-.25.09-.28,5.93-1.3,12.47-4.31,16.04-7.63.16-.12.31-.16.5-.09.71.22,1.6.56,2.24.9.29.15.24.33-.03.5-.12.07-.21.12-.31.19-.09.06-.16.12-.22.19Z"/>
          <path class="cls-2" d="M146.91,23.14c0-.22-.12-.34-.34-.34h-.57v-3.41c0-.22-.12-.34-.34-.34h-20.67c-.19,0-.34.08-.34.28v5.6c0,.22.12.34.34.34.68.03,1.68.03,2.33,0,.22,0,.34-.12.34-.34v-.26h18.91c.22,0,.34-.12.34-.34.01-.46.01-.81,0-1.18ZM142.99,20.9v1.89h-15.33v-1.89h15.33Z"/>
          <path class="cls-2" d="M143.66,9.07h-21.92c-.25,0-.35.13-.32.35.07.58.1,1.02.13,1.63.34,6.84-1.32,8.81-5.5,12.09-.16.13-.13.24.06.3,1.32.44,1.7.74,2.07,1.05.29.24.66.13,1.1-.23,2.3-1.89,3-2.91,4.08-5.1.23-.47.42-1.06.57-1.73h17.07v.26c0,.22.12.34.34.34,0,.03,2.33.03,2.33,0,.22,0,.34-.12.34-.34v-8.28c0-.22-.12-.34-.34-.34ZM140.99,10.94v1.39h-16.55c0-.46.01-.92,0-1.39h16.54ZM124.36,14.18h16.63v1.39h-16.76c.05-.44.1-.91.13-1.39Z"/>
          <path class="cls-2" d="M132.56,8.44c-1.17-.75-1.51-.93-2.74-1.49-.2-.1-.25-.25-.13-.43.29-.51.67-1.04,1.05-1.5.15-.19.34-.22.52-.15,1.24.52,1.6.7,2.95,1.41.17.09.23.3.1.51-.38.6-.79,1.14-1.22,1.59-.16.16-.33.19-.54.05Z"/>
        </g>
        <g>
          <path class="cls-3" d="M113.47,21.1c-3.81-1.44-7.5-4.13-10.4-7.32,3.75,0,7.25.03,9.23.06.25,0,.37-.09.37-.34.03-.68.03-1.68,0-2.36,0-.22-.12-.34-.34-.31-1.57.05-4.08.09-6.9.13,1.21-1.67,2.75-3.96,3.46-5.12.17-.29.33-.53.49-.74.1-.13.16-.21.26-.32.23-.26.23-.42-.06-.56-.73-.3-1.71-.65-2.41-.84-.19-.05-.34.02-.43.18-.96,1.98-3.45,5.54-5.03,7.44-1.12,0-2.24.02-3.34.02h0c0-.23,0-.46,0-.68V2.48c0-.28.03-.68.06-1.21.03-.22-.06-.34-.28-.37-.68-.06-1.74-.09-2.58-.06-.22,0-.31.12-.31.34.03.53.06.96.06,1.3v7.85c0,.23,0,.46,0,.68h0c-5.37,0-9.56.06-14.06-.25-.22-.03-.34.09-.34.31-.03.68,0,1.92.06,2.61.03.25.16.34.37.34,3.14-.2,6.08-.24,9.38-.25-2.63,3.37-6.44,6.61-10.18,8.19-.19.09-.22.19-.06.31,1.12.87,1.52,1.33,1.83,1.68.28.25.59.31.93.12,4.12-2.03,8.48-6.34,10.92-10.31h1.24c0,.35.01.7,0,1.06-.03,2.7-.06,6.24-.12,9.84,0,.22.12.34.34.37.68.03,1.77.03,2.48,0,.22,0,.34-.12.34-.37-.09-3.6-.12-7.17-.16-9.87,0-.34,0-.68,0-1.02h1.22c3.27,4.43,7.25,7.77,11.43,9.72.28.12.53.09.78-.09.47-.43.75-.96,1.77-1.99.16-.12.12-.25-.06-.31Z"/>
          <path class="cls-3" d="M88.93,9.6c.14.18.31.25.53.12.62-.31,1.24-.73,1.92-1.22.19-.14.2-.32.06-.5-1.56-1.99-2.4-2.95-4.19-4.66-.17-.16-.34-.19-.53-.09-.62.37-1.3.81-1.83,1.24-.19.16-.19.31-.03.47,1.77,1.79,2.61,2.76,4.08,4.64Z"/>
        </g>
        <g>
          <path class="cls-3" d="M182.89,4.31c-.03-.22-.12-.34-.37-.34-1.85.09-5.41.15-8.86.19,0-.24,0-.47,0-.65.01-.67.03-1.15.08-1.71.01-.13.07-.33.12-.53.05-.2-.06-.34-.28-.37-.93-.09-1.99-.09-2.86-.06-.25,0-.34.12-.31.34.03.25.05.4.06.68.01.27.04.9.06,1.65,0,.21.01.43.02.65-1.19.03-6.1.03-7.25.03v-.65c0-.68.03-1.35.06-1.77.02-.2.07-.36.12-.53.05-.15,0-.34-.28-.37-.87-.09-1.92-.12-2.79-.09-.25.03-.34.12-.31.37.03.22.05.42.06.68.04.71.06,1.57.08,2.36-2.95,0-6.06-.06-8.83-.25-.22,0-.34.09-.34.31-.03.65,0,1.74.06,2.39.03.22.16.34.37.31,2.79-.15,5.83-.22,8.75-.22,0,.38-.02.7-.02,1.15,0,.22.12.34.34.37.68.06,1.74.06,2.42,0,.22,0,.34-.12.34-.34-.02-.48-.03-.82-.03-1.18h7.26c0,.36,0,.66-.03,1.09,0,.25.12.37.34.37.71.06,1.77.06,2.48.03.22-.03.34-.16.34-.37-.02-.45-.03-.77-.03-1.12,3.44,0,7,.03,8.84.06.25,0,.34-.12.37-.34.03-.62.03-1.52,0-2.14Z"/>
          <path class="cls-3" d="M182.03,16.99c-.53-.36-1.06-.58-1.74-1.19-.17-.16-.31-.11-.4.09-.26.63-.46,1.09-.87,1.67-.99,1.37-2,2.22-3.85,3.04-4.27,1.9-9.95,2.39-15.17,1.77-2.57-.31-4.17-1.41-4.33-3.13-.13-1.35.62-2.82,2.13-3.66,2.54-1.42,5.55-2.35,8.95-2.92,3.02-.5,6.81-.77,10.65-.77.18,0,.31-.13.29-.28-.1-.82-.25-1.5-.46-2.13-.07-.22-.15-.32-.37-.31-1.75.12-3.09.17-4.41.19h-8.26c-3.23,0-6.24.06-9.65-.19-.22,0-.34.09-.34.31-.03.68,0,1.89.06,2.61.03.22.16.31.37.31,3.05-.2,6.43-.22,7.83-.22-1.13.29-2.4.68-3.45,1.06s-2.05.82-2.92,1.3c-4.43,2.47-4.46,6.38-2.66,8.28,1.64,1.73,4.71,2.43,7.85,2.62,5.27.32,10.62-.38,14.88-2.11,2.11-.85,3.34-1.69,4.67-3.1.71-.75,1.1-1.38,1.45-2.22.21-.5.11-.75-.26-1.02Z"/>
        </g>
      </g>
    </g>
  </g>
</svg>